# xmcd
#
# Track frame offsets:
#	150
#	12241
#	37595
#	50181
#	72697
#	87433
#	109290
#	124754
#	143706
#	160454
#	184251
#	197421
#	216859
#	241847
#	250237
#	265161
#	279062
#	297259
#
# Disc length: 4170 seconds
#
# Revision: 1
# Processed by: cddbd v1.5.2PL0 Copyright (c) Steve Scherf et al.
# Submitted via: audiograbber 1.83.01
#
DISCID=0b104812
DTITLE=BB King - His Definitive Greatest Hits CD2
DYEAR=1900
DGENRE=Blues
TTITLE0=Help The Poor
TTITLE1=So Excited
TTITLE2=Broken Heart
TTITLE3=Othello Woman
TTITLE4=Ain't Nobody Home
TTITLE5=Darlin' You Know I Love You
TTITLE6=In The Midnight Hour
TTITLE7=Just The Night
TTITLE8=My Lucille
TTITLE9=The Blues Came Over Me
TTITLE10=Since I Met You Baby
TTITLE11=I'm Moving On
TTITLE12=Let The Good Times Roll
TTITLE13=Woke Up This Morning
TTITLE14=Three O'Clock Blues
TTITLE15=Please Love Me
TTITLE16=California
TTITLE17=Rock Me Baby
EXTD=
EXTT0=
EXTT1=
EXTT2=
EXTT3=
EXTT4=
EXTT5=
EXTT6=
EXTT7=
EXTT8=
EXTT9=
EXTT10=
EXTT11=
EXTT12=
EXTT13=
EXTT14=
EXTT15=
EXTT16=
EXTT17=
PLAYORDER=
